<svg id="svgexport-6_66_" data-name="svgexport-6 (66)" xmlns="http://www.w3.org/2000/svg" width="50.825" height="50.825" viewBox="0 0 50.825 50.825">
  <g id="Group_42780" data-name="Group 42780" transform="translate(0 0)">
    <path id="Path_167970" data-name="Path 167970" d="M73.088,0C58.6-.112,46.066,7.65,37.322,19.32A9.947,9.947,0,0,0,26.1,21.3a.993.993,0,0,0,0,1.4l8.013,8.013-1.491,5.3a.993.993,0,0,0,.254.971L37.09,41.2a.993.993,0,0,0,.971.254l5.3-1.491,8.013,8.013a.993.993,0,0,0,1.4,0,9.944,9.944,0,0,0,1.978-11.22A53.944,53.944,0,0,0,66.1,25.282a.993.993,0,1,0-1.612-1.159,52.139,52.139,0,0,1-11.6,11.534,39.324,39.324,0,0,1-6.907,4.122l-5.143-5.143,5.615-5.615a.993.993,0,0,0-1.4-1.4l-5.615,5.615c-3.714-3.714.328.327-5.143-5.143C37.455,20.976,47.475,7.744,62.42,3.443a9.918,9.918,0,0,0,8.21,8.212,38.444,38.444,0,0,1-1.781,4.9.993.993,0,1,0,1.816.8A39.464,39.464,0,0,0,74.074.987.993.993,0,0,0,73.088,0ZM53.105,37.939a7.959,7.959,0,0,1-1.075,7.884l-4.547-4.547A43.326,43.326,0,0,0,53.105,37.939ZM35.725,32.325,41.75,38.35l-3.668,1.032-3.39-3.39ZM32.8,26.592l-4.547-4.547a7.961,7.961,0,0,1,7.883-1.076A43.339,43.339,0,0,0,32.8,26.592ZM71.133,9.724a7.939,7.939,0,0,1-6.782-6.782,37.533,37.533,0,0,1,7.732-.95A37.544,37.544,0,0,1,71.133,9.724Z" transform="translate(-23.25 0)" fill="#fff"/>
    <path id="Path_167971" data-name="Path 167971" d="M249.629,126.461a6.948,6.948,0,1,0,9.827,0A6.95,6.95,0,0,0,249.629,126.461Zm8.423,8.423a4.963,4.963,0,1,1,0-7.019A4.966,4.966,0,0,1,258.052,134.884Z" transform="translate(-223.016 -112.075)" fill="#fff"/>
    <circle id="Ellipse_2671" data-name="Ellipse 2671" cx="0.993" cy="0.993" r="0.993" transform="translate(43.308 19.851)" fill="#fff"/>
    <path id="Path_167972" data-name="Path 167972" d="M5.417,390.308C4.2,391.528.774,398.524.1,399.914a.993.993,0,0,0,1.326,1.326c1.39-.674,8.386-4.1,9.606-5.316h0a3.971,3.971,0,1,0-5.616-5.615Zm4.213,4.211a48.758,48.758,0,0,1-6.436,3.628,48.787,48.787,0,0,1,3.628-6.436,1.986,1.986,0,0,1,2.808,2.808Z" transform="translate(-0.001 -350.515)" fill="#fff"/>
  </g>
</svg>
