<svg id="svgexport-6_67_" data-name="svgexport-6 (67)" xmlns="http://www.w3.org/2000/svg" width="44.671" height="50.825" viewBox="0 0 44.671 50.825">
  <g id="Group_42781" data-name="Group 42781" transform="translate(0)">
    <path id="Path_167973" data-name="Path 167973" d="M87.058,33.829V29.284a9,9,0,0,1,2.75-6.391,13.4,13.4,0,1,0-18.9,0,9,9,0,0,1,2.75,6.391v4.545A14.165,14.165,0,0,0,61,47.9v1.439a1.489,1.489,0,0,0,1.489,1.489H98.225a1.489,1.489,0,0,0,1.489-1.489V47.9A14.165,14.165,0,0,0,87.058,33.829ZM73.006,20.78a10.423,10.423,0,1,1,14.7,0A12.08,12.08,0,0,0,84.176,27.8h-2.33V17.989l3.535-3.535a1.489,1.489,0,1,0-2.106-2.106l-2.918,2.918-2.918-2.918a1.489,1.489,0,1,0-2.106,2.106l3.535,3.535V27.8h-2.33A12.08,12.08,0,0,0,73.006,20.78Zm3.629,12.971V30.773H84.08v2.978Zm5.627,2.978-.993,2.978H79.445l-.993-2.978ZM75.217,47.847H63.978A11.18,11.18,0,0,1,75.146,36.729h.168l1.51,4.531Zm3.065,0,1.259-5.162h1.632l1.259,5.162Zm7.215,0L83.891,41.26l1.51-4.531h.168A11.18,11.18,0,0,1,96.736,47.847Z" transform="translate(-58.022)" fill="#fff"/>
    <path id="Path_167974" data-name="Path 167974" d="M425.467,120h-2.978a1.489,1.489,0,0,0,0,2.978h2.978a1.489,1.489,0,0,0,0-2.978Z" transform="translate(-382.286 -108.088)" fill="#fff"/>
    <path id="Path_167975" data-name="Path 167975" d="M403.232,34.266l2.579-1.489a1.489,1.489,0,0,0-1.489-2.579l-2.579,1.489a1.489,1.489,0,0,0,1.489,2.579Z" transform="translate(-364.269 -27.02)" fill="#fff"/>
    <path id="Path_167976" data-name="Path 167976" d="M405.811,196.687l-2.579-1.489a1.489,1.489,0,0,0-1.489,2.579l2.579,1.489a1.489,1.489,0,0,0,1.489-2.579Z" transform="translate(-364.269 -175.641)" fill="#fff"/>
    <path id="Path_167977" data-name="Path 167977" d="M36.956,121.489A1.489,1.489,0,0,0,35.467,120H32.489a1.489,1.489,0,0,0,0,2.978h2.978A1.489,1.489,0,0,0,36.956,121.489Z" transform="translate(-31 -108.088)" fill="#fff"/>
    <path id="Path_167978" data-name="Path 167978" d="M55.762,32.777l2.579,1.489a1.489,1.489,0,1,0,1.489-2.579L57.251,30.2a1.489,1.489,0,0,0-1.489,2.579Z" transform="translate(-52.634 -27.02)" fill="#fff"/>
    <path id="Path_167979" data-name="Path 167979" d="M57.252,199.266l2.579-1.489a1.489,1.489,0,0,0-1.489-2.579l-2.579,1.489a1.489,1.489,0,0,0,1.489,2.579Z" transform="translate(-52.634 -175.641)" fill="#fff"/>
  </g>
</svg>
