<svg id="svgexport-6_84_" data-name="svgexport-6 (84)" xmlns="http://www.w3.org/2000/svg" width="71.847" height="71.847" viewBox="0 0 71.847 71.847">
  <g id="Group_42891" data-name="Group 42891" transform="translate(0 0)">
    <g id="Group_42888" data-name="Group 42888" transform="translate(16.839 16.839)">
      <path id="Path_168044" data-name="Path 168044" d="M139.084,158.169a19.084,19.084,0,1,1,19.084-19.084A19.106,19.106,0,0,1,139.084,158.169Zm0-33.959a14.875,14.875,0,1,0,14.875,14.875A14.891,14.891,0,0,0,139.084,124.21Z" transform="translate(-120 -120)" fill="#fff"/>
    </g>
    <g id="Group_42889" data-name="Group 42889">
      <path id="Path_168045" data-name="Path 168045" d="M42.646,71.847H29.2l-2.03-5.436a31.514,31.514,0,0,1-6.614-2.741l-5.281,2.409L5.768,56.571l2.409-5.281a31.517,31.517,0,0,1-2.741-6.614L0,42.646V29.2l5.436-2.03a31.514,31.514,0,0,1,2.741-6.614L5.768,15.276l9.508-9.508,5.281,2.409A31.511,31.511,0,0,1,27.17,5.436L29.2,0H42.646l2.03,5.436a31.514,31.514,0,0,1,6.614,2.741l5.281-2.409,9.508,9.508L63.67,20.556a31.512,31.512,0,0,1,2.741,6.614l5.436,2.03V42.646l-5.436,2.03a31.517,31.517,0,0,1-2.741,6.614l2.409,5.281-9.508,9.508L51.291,63.67a31.511,31.511,0,0,1-6.614,2.741Zm-10.524-4.21h7.6L41.5,62.883l1.076-.267A27.312,27.312,0,0,0,50.091,59.5l.95-.572,4.619,2.107,5.376-5.376-2.107-4.619.572-.95a27.313,27.313,0,0,0,3.114-7.514l.267-1.076,4.754-1.775v-7.6l-4.754-1.775-.267-1.076A27.311,27.311,0,0,0,59.5,21.756l-.572-.95,2.107-4.619L55.66,10.81l-4.619,2.107-.95-.572a27.31,27.31,0,0,0-7.514-3.114L41.5,8.964,39.725,4.21h-7.6L30.347,8.964l-1.076.267a27.311,27.311,0,0,0-7.514,3.114l-.95.572L16.186,10.81,10.81,16.186l2.107,4.619-.572.95A27.31,27.31,0,0,0,9.231,29.27l-.267,1.076L4.21,32.122v7.6L8.964,41.5l.267,1.076a27.315,27.315,0,0,0,3.114,7.514l.572.95L10.81,55.66l5.376,5.376,4.619-2.107.95.572a27.31,27.31,0,0,0,7.514,3.114l1.076.267Z" transform="translate(0 0)" fill="#fff"/>
    </g>
    <g id="Group_42890" data-name="Group 42890" transform="translate(26.993 29.97)">
      <path id="Path_168046" data-name="Path 168046" d="M199.8,226.969l-7.442-7.442,2.977-2.977,4.465,4.465,7.442-7.442,2.977,2.977Z" transform="translate(-192.36 -213.574)" fill="#fff"/>
    </g>
  </g>
</svg>
