<svg id="svgexport-6_65_" data-name="svgexport-6 (65)" xmlns="http://www.w3.org/2000/svg" width="71.369" height="71.369" viewBox="0 0 71.369 71.369">
  <g id="Group_42768" data-name="Group 42768" transform="translate(4.191 1.857)">
    <g id="Group_42767" data-name="Group 42767">
      <path id="Path_167964" data-name="Path 167964" d="M51.728,14.259a1.41,1.41,0,0,0-1.77-.866,35.672,35.672,0,0,0-6.055,2.74,35.83,35.83,0,0,0-13.663,13.9,1.394,1.394,0,0,0,2.446,1.338A32.866,32.866,0,0,1,50.863,16.03,1.4,1.4,0,0,0,51.728,14.259Z" transform="translate(-30.068 -13.32)" fill="#f6f6f6"/>
    </g>
  </g>
  <g id="Group_42770" data-name="Group 42770" transform="translate(1.925 22.936)">
    <g id="Group_42769" data-name="Group 42769">
      <path id="Path_167965" data-name="Path 167965" d="M15.2,164.54a1.394,1.394,0,0,0-.461,2.71,1.394,1.394,0,1,0,.461-2.71Z" transform="translate(-13.807 -164.54)" fill="#f6f6f6"/>
    </g>
  </g>
  <g id="Group_42772" data-name="Group 42772" transform="translate(45.448 50.737)">
    <g id="Group_42771" data-name="Group 42771">
      <path id="Path_167966" data-name="Path 167966" d="M347.044,364.153a1.41,1.41,0,0,0-1.892.553,32.865,32.865,0,0,1-18.178,15.346,1.394,1.394,0,0,0,.907,2.637,35.7,35.7,0,0,0,11.443-6.511,35.8,35.8,0,0,0,8.273-10.134A1.408,1.408,0,0,0,347.044,364.153Z" transform="translate(-326.039 -363.986)" fill="#f6f6f6"/>
    </g>
  </g>
  <g id="Group_42774" data-name="Group 42774" transform="translate(66.661 45.648)">
    <g id="Group_42773" data-name="Group 42773">
      <path id="Path_167967" data-name="Path 167967" d="M480.869,328.262a1.391,1.391,0,0,0-.8-.712,1.412,1.412,0,0,0-1.717,1.919,1.381,1.381,0,0,0,.795.711A1.412,1.412,0,0,0,480.869,328.262Z" transform="translate(-478.222 -327.474)" fill="#f6f6f6"/>
    </g>
  </g>
  <g id="Group_42776" data-name="Group 42776">
    <g id="Group_42775" data-name="Group 42775">
      <path id="Path_167968" data-name="Path 167968" d="M69.975,34.291H65.761A30.108,30.108,0,0,0,37.079,5.608V1.394a1.394,1.394,0,0,0-2.788,0V5.608A30.108,30.108,0,0,0,5.608,34.291H1.394a1.394,1.394,0,0,0,0,2.788H5.608A30.108,30.108,0,0,0,34.291,65.761v4.214a1.394,1.394,0,1,0,2.788,0V65.761A30.108,30.108,0,0,0,65.761,37.079h4.214a1.394,1.394,0,1,0,0-2.788ZM58.824,37.079H62.97A27.36,27.36,0,0,1,37.079,62.97V58.824a1.394,1.394,0,0,0-2.788,0V62.97A27.36,27.36,0,0,1,8.4,37.079h4.147a1.394,1.394,0,0,0,0-2.788H8.4A27.36,27.36,0,0,1,34.291,8.4v4.147a1.394,1.394,0,0,0,2.788,0V8.4A27.36,27.36,0,0,1,62.97,34.291H58.824a1.394,1.394,0,0,0,0,2.788Z" fill="#f6f6f6"/>
    </g>
  </g>
  <g id="Group_42778" data-name="Group 42778" transform="translate(21.048 18.47)">
    <g id="Group_42777" data-name="Group 42777">
      <path id="Path_167969" data-name="Path 167969" d="M172.934,151.043a12.048,12.048,0,0,0,2.46-7.392c0-6.149-4.377-11.151-9.758-11.151s-9.758,5-9.758,11.151a12.048,12.048,0,0,0,2.46,7.392A17.28,17.28,0,0,0,151,165.536a1.394,1.394,0,0,0,1.394,1.394h26.485a1.394,1.394,0,0,0,1.394-1.394A17.28,17.28,0,0,0,172.934,151.043Zm-7.3-15.755c3.843,0,6.97,3.752,6.97,8.364s-3.127,8.364-6.97,8.364-6.97-3.752-6.97-8.364S161.793,135.288,165.636,135.288Zm-11.79,28.854a14.126,14.126,0,0,1,6.54-11.1,8.714,8.714,0,0,0,10.5,0,14.125,14.125,0,0,1,6.54,11.1Z" transform="translate(-151 -132.5)" fill="#f6f6f6"/>
    </g>
  </g>
</svg>
