<svg id="Group_42905" data-name="Group 42905" xmlns="http://www.w3.org/2000/svg" width="54.224" height="53.164" viewBox="0 0 54.224 53.164">
  <path id="Path_168017" data-name="Path 168017" d="M269.7,148.588H244.177V147H241v6.932h3.177v-2.166h22.346v28.595H244.177v-2.166H241v6.932h3.177v-1.589H269.7Z" transform="translate(-215.477 -131.961)" fill="#fff"/>
  <path id="Path_168018" data-name="Path 168018" d="M241,343.362h3.177v6.932H241Z" transform="translate(-215.477 -307.528)" fill="#fff"/>
  <path id="Path_168019" data-name="Path 168019" d="M241,245.181h3.177v6.932H241Z" transform="translate(-215.477 -219.744)" fill="#fff"/>
  <path id="Path_168020" data-name="Path 168020" d="M90.223,8.177a23.76,23.76,0,0,1,13.695,4.3H100.8v3.177h9.064V6.589h-3.177v3.976a27.125,27.125,0,0,0-32.918,0V6.589H70.587v9.064h9.064V12.476H76.528a23.76,23.76,0,0,1,13.695-4.3Z" transform="translate(-63.111 -5)" fill="#fff"/>
  <path id="Path_168021" data-name="Path 168021" d="M180,162h3.177v3.177H180Z" transform="translate(-160.937 -145.372)" fill="#fff"/>
  <path id="Path_168022" data-name="Path 168022" d="M120,162h3.177v3.177H120Z" transform="translate(-107.291 -145.372)" fill="#fff"/>
  <path id="Path_168023" data-name="Path 168023" d="M60,162h3.177v3.177H60Z" transform="translate(-53.646 -145.372)" fill="#fff"/>
  <path id="Path_168024" data-name="Path 168024" d="M180,462h3.177v3.177H180Z" transform="translate(-160.937 -413.6)" fill="#fff"/>
  <path id="Path_168025" data-name="Path 168025" d="M120,462h3.177v3.177H120Z" transform="translate(-107.291 -413.6)" fill="#fff"/>
  <path id="Path_168026" data-name="Path 168026" d="M60,462h3.177v3.177H60Z" transform="translate(-53.646 -413.6)" fill="#fff"/>
  <path id="Path_168027" data-name="Path 168027" d="M0,162H3.177v3.177H0Z" transform="translate(0 -145.372)" fill="#fff"/>
  <path id="Path_168028" data-name="Path 168028" d="M0,222H3.177v3.177H0Z" transform="translate(0 -199.018)" fill="#fff"/>
  <path id="Path_168029" data-name="Path 168029" d="M0,282H3.177v3.177H0Z" transform="translate(0 -252.663)" fill="#fff"/>
  <path id="Path_168030" data-name="Path 168030" d="M0,342H3.177v3.177H0Z" transform="translate(0 -306.309)" fill="#fff"/>
  <path id="Path_168031" data-name="Path 168031" d="M0,402H3.177v3.177H0Z" transform="translate(0 -359.955)" fill="#fff"/>
  <path id="Path_168032" data-name="Path 168032" d="M0,462H3.177v3.177H0Z" transform="translate(0 -413.6)" fill="#fff"/>
</svg>
