<svg id="Group_42856" data-name="Group 42856" xmlns="http://www.w3.org/2000/svg" width="18.604" height="18.24" viewBox="0 0 18.604 18.24">
  <path id="Path_168017" data-name="Path 168017" d="M250.847,147.544H242.09V147H241v2.378h1.09v-.743h7.667v9.81H242.09V157.7H241v2.378h1.09v-.545h8.757Z" transform="translate(-232.243 -141.839)" fill="#3eb6ae"/>
  <path id="Path_168018" data-name="Path 168018" d="M241,343.362h1.09v2.378H241Z" transform="translate(-232.243 -331.068)" fill="#3eb6ae"/>
  <path id="Path_168019" data-name="Path 168019" d="M241,245.181h1.09v2.378H241Z" transform="translate(-232.243 -236.454)" fill="#3eb6ae"/>
  <path id="Path_168020" data-name="Path 168020" d="M77.324,6.09a8.152,8.152,0,0,1,4.7,1.475H80.951v1.09h3.11V5.545h-1.09V6.909a9.306,9.306,0,0,0-11.294,0V5.545h-1.09v3.11H73.7V7.565H72.625a8.152,8.152,0,0,1,4.7-1.475Z" transform="translate(-68.022 -5)" fill="#3eb6ae"/>
  <path id="Path_168021" data-name="Path 168021" d="M180,162h1.09v1.09H180Z" transform="translate(-173.46 -156.294)" fill="#3eb6ae"/>
  <path id="Path_168022" data-name="Path 168022" d="M120,162h1.09v1.09H120Z" transform="translate(-115.64 -156.294)" fill="#3eb6ae"/>
  <path id="Path_168023" data-name="Path 168023" d="M60,162h1.09v1.09H60Z" transform="translate(-57.82 -156.294)" fill="#3eb6ae"/>
  <path id="Path_168024" data-name="Path 168024" d="M180,462h1.09v1.09H180Z" transform="translate(-173.46 -445.394)" fill="#3eb6ae"/>
  <path id="Path_168025" data-name="Path 168025" d="M120,462h1.09v1.09H120Z" transform="translate(-115.64 -445.394)" fill="#3eb6ae"/>
  <path id="Path_168026" data-name="Path 168026" d="M60,462h1.09v1.09H60Z" transform="translate(-57.82 -445.394)" fill="#3eb6ae"/>
  <path id="Path_168027" data-name="Path 168027" d="M0,162H1.09v1.09H0Z" transform="translate(0 -156.294)" fill="#3eb6ae"/>
  <path id="Path_168028" data-name="Path 168028" d="M0,222H1.09v1.09H0Z" transform="translate(0 -214.114)" fill="#3eb6ae"/>
  <path id="Path_168029" data-name="Path 168029" d="M0,282H1.09v1.09H0Z" transform="translate(0 -271.934)" fill="#3eb6ae"/>
  <path id="Path_168030" data-name="Path 168030" d="M0,342H1.09v1.09H0Z" transform="translate(0 -329.754)" fill="#3eb6ae"/>
  <path id="Path_168031" data-name="Path 168031" d="M0,402H1.09v1.09H0Z" transform="translate(0 -387.574)" fill="#3eb6ae"/>
  <path id="Path_168032" data-name="Path 168032" d="M0,462H1.09v1.09H0Z" transform="translate(0 -445.394)" fill="#3eb6ae"/>
</svg>
