<svg xmlns="http://www.w3.org/2000/svg" xmlns:xlink="http://www.w3.org/1999/xlink" width="178.035" height="35.344" viewBox="0 0 178.035 35.344">
  <defs>
    <linearGradient id="linear-gradient" x1="0.915" y1="1.039" x2="-0.383" y2="0.369" gradientUnits="objectBoundingBox">
      <stop offset="0" stop-color="#0c042d"/>
      <stop offset="0.007" stop-color="#00a1ff"/>
      <stop offset="0.26" stop-color="#00beff"/>
      <stop offset="0.512" stop-color="#00d2ff"/>
      <stop offset="0.76" stop-color="#00dfff"/>
      <stop offset="1" stop-color="#00e3ff"/>
    </linearGradient>
    <linearGradient id="linear-gradient-2" x1="1.076" y1="0.759" x2="-1.305" y2="0.759" gradientUnits="objectBoundingBox">
      <stop offset="0" stop-color="#ffe000"/>
      <stop offset="0.409" stop-color="#ffbd00"/>
      <stop offset="0.775" stop-color="orange"/>
      <stop offset="1" stop-color="#ff9c00"/>
    </linearGradient>
    <linearGradient id="linear-gradient-3" x1="0.862" y1="-0.006" x2="-0.501" y2="-1.776" gradientUnits="objectBoundingBox">
      <stop offset="0" stop-color="#ff3a44"/>
      <stop offset="1" stop-color="#c31162"/>
    </linearGradient>
    <linearGradient id="linear-gradient-4" x1="-0.188" y1="2.714" x2="0.421" y2="1.924" gradientUnits="objectBoundingBox">
      <stop offset="0" stop-color="#32a071"/>
      <stop offset="0.068" stop-color="#2da771"/>
      <stop offset="0.476" stop-color="#15cf74"/>
      <stop offset="0.801" stop-color="#06e775"/>
      <stop offset="1" stop-color="#00f076"/>
    </linearGradient>
  </defs>
  <g id="Group_19838" data-name="Group 19838" transform="translate(0 0)">
    <g id="Group_19238" data-name="Group 19238" transform="translate(46.549 7.272)">
      <path id="Path_728" data-name="Path 728" d="M693.5,387.773a6.92,6.92,0,1,0,6.621,6.914A6.661,6.661,0,0,0,693.5,387.773Zm0,11.1a4.219,4.219,0,1,1,3.722-4.19A3.923,3.923,0,0,1,693.5,398.877Zm-14.445-11.1a6.92,6.92,0,1,0,6.622,6.914A6.661,6.661,0,0,0,679.051,387.773Zm0,11.1a4.219,4.219,0,1,1,3.722-4.19A3.922,3.922,0,0,1,679.051,398.877Zm-17.183-8.983v2.933h6.7a6.266,6.266,0,0,1-1.525,3.693,6.706,6.706,0,0,1-5.173,2.147,7.818,7.818,0,0,1,0-15.608,6.973,6.973,0,0,1,5.049,2.1l1.973-2.07a9.54,9.54,0,0,0-7.022-2.959,10.743,10.743,0,0,0,0,21.474,9.154,9.154,0,0,0,7.147-3.011,10.987,10.987,0,0,0,2.273-8.694Zm70.272,2.279c-.549-1.546-2.223-4.4-5.647-4.4-3.4,0-6.222,2.8-6.222,6.914a6.618,6.618,0,0,0,6.547,6.913,6.5,6.5,0,0,0,5.5-3.063l-2.248-1.571a3.737,3.737,0,0,1-3.249,1.911,3.346,3.346,0,0,1-3.2-2.1l8.82-3.823Zm-8.994,2.3a3.719,3.719,0,0,1,3.447-4.033,2.539,2.539,0,0,1,2.449,1.467Zm-7.172,6.7h2.9V380.859h-2.9Zm-4.747-11.863h-.1a4.479,4.479,0,0,0-3.474-1.546c-3.3,0-6.321,3.039-6.321,6.94,0,3.876,3.023,6.887,6.321,6.887a4.414,4.414,0,0,0,3.474-1.57h.1v.994c0,2.646-1.349,4.06-3.523,4.06a3.669,3.669,0,0,1-3.323-2.463l-2.524,1.1a6.3,6.3,0,0,0,5.848,4.086c3.4,0,6.271-2.094,6.271-7.2V388.192h-2.748Zm-3.323,9.558a4.226,4.226,0,0,1,0-8.38c1.974,0,3.523,1.78,3.523,4.216C711.426,397.123,709.876,398.877,707.9,398.877Zm37.814-18.017h-6.935v20.321h2.894v-7.7h4.042a6.311,6.311,0,1,0,0-12.621Zm.075,9.794h-4.117v-6.967h4.117a3.485,3.485,0,0,1,0,6.967Zm17.886-2.919a5.4,5.4,0,0,0-5.165,3.112l2.57,1.124a2.714,2.714,0,0,1,2.644-1.49,2.827,2.827,0,0,1,3.044,2.615v.209a6.188,6.188,0,0,0-3.019-.784c-2.769,0-5.587,1.6-5.587,4.576a4.563,4.563,0,0,0,4.814,4.47,4.043,4.043,0,0,0,3.692-1.987h.1v1.569h2.793v-7.791C769.564,389.748,766.994,387.735,763.678,387.735Zm-.35,11.138c-.948,0-2.27-.5-2.27-1.726,0-1.569,1.647-2.17,3.068-2.17a4.979,4.979,0,0,1,2.644.68A3.571,3.571,0,0,1,763.327,398.873Zm16.414-10.694-3.318,8.811h-.1l-3.442-8.811h-3.117l5.163,12.315-2.944,6.849H775l7.957-19.164Zm-26.068,13h2.894V380.86h-2.894Z" transform="translate(-651.473 -380.126)" fill="#0c042d"/>
    </g>
    <path id="Path_34916" data-name="Path 34916" d="M614.8,368.728a2.835,2.835,0,0,0-.608,1.931v30.39a2.837,2.837,0,0,0,.608,1.931l.1.1,16.242-17.023v-.4l-16.242-17.024Z" transform="translate(-614.19 -368.181)" fill="url(#linear-gradient)"/>
    <path id="Path_34917" data-name="Path 34917" d="M635.116,390.293l-5.415-5.676v-.4l5.416-5.676.121.073,6.416,3.82c1.832,1.091,1.832,2.877,0,3.968l-6.416,3.821Z" transform="translate(-612.754 -366.743)" fill="url(#linear-gradient-2)"/>
    <path id="Path_34918" data-name="Path 34918" d="M636.623,389.475l-5.537-5.8L614.746,400.8c.6.67,1.6.752,2.724.084l19.153-11.405" transform="translate(-614.139 -365.998)" fill="url(#linear-gradient-3)"/>
    <path id="Path_34919" data-name="Path 34919" d="M636.623,380.1,617.47,368.7c-1.123-.669-2.119-.585-2.724.085l16.339,17.125Z" transform="translate(-614.139 -368.238)" fill="url(#linear-gradient-4)"/>
  </g>
</svg>
