<svg id="Group_19609" data-name="Group 19609" xmlns="http://www.w3.org/2000/svg" width="172.218" height="39.43" viewBox="0 0 172.218 39.43">
  <path id="Path_669" data-name="Path 669" d="M76.249,44.476a8.375,8.375,0,0,1,3.99-7.027A8.581,8.581,0,0,0,73.482,33.8c-2.843-.3-5.6,1.7-7.048,1.7-1.477,0-3.707-1.672-6.11-1.622a9,9,0,0,0-7.573,4.617c-3.275,5.668-.832,14,2.305,18.578,1.569,2.245,3.4,4.749,5.8,4.661,2.348-.1,3.226-1.5,6.06-1.5,2.808,0,3.632,1.5,6.08,1.439,2.52-.039,4.107-2.254,5.622-4.518a18.518,18.518,0,0,0,2.571-5.234A8.1,8.1,0,0,1,76.249,44.476ZM71.625,30.783a8.242,8.242,0,0,0,1.887-5.908,8.4,8.4,0,0,0-5.431,2.809,7.844,7.844,0,0,0-1.937,5.69A6.939,6.939,0,0,0,71.625,30.783Z" transform="translate(-51.195 -24.875)" fill="#6a7081"/>
  <g id="Group_98" data-name="Group 98" transform="translate(44.865 11.651)">
    <path id="Path_671" data-name="Path 671" d="M187.758,93.581H184.13l-1.987-6.242h-6.907l-1.893,6.242h-3.532l6.845-21.251h4.227Zm-6.214-8.861-1.8-5.549q-.285-.85-1.072-4h-.064q-.316,1.356-1.009,4l-1.767,5.549Zm23.781,1.011A8.676,8.676,0,0,1,203.2,91.91a6.23,6.23,0,0,1-4.725,2.018,4.73,4.73,0,0,1-4.377-2.173v8.04h-3.406v-16.5q0-2.455-.126-5.037h3l.19,2.429h.064a6.059,6.059,0,0,1,9.7-.6A8.472,8.472,0,0,1,205.325,85.731Zm-3.469.125a6.316,6.316,0,0,0-1.01-3.69,3.489,3.489,0,0,0-2.965-1.512,3.542,3.542,0,0,0-2.286.835,3.874,3.874,0,0,0-1.34,2.192,4.446,4.446,0,0,0-.158,1.036v2.557a4.1,4.1,0,0,0,1.026,2.823,3.4,3.4,0,0,0,2.664,1.151,3.491,3.491,0,0,0,2.995-1.482A6.521,6.521,0,0,0,201.856,85.856Zm21.1-.125a8.676,8.676,0,0,1-2.124,6.178,6.233,6.233,0,0,1-4.727,2.018,4.73,4.73,0,0,1-4.377-2.173v8.04h-3.406v-16.5q0-2.455-.126-5.037h3l.19,2.429h.064a6.061,6.061,0,0,1,9.7-.6A8.48,8.48,0,0,1,222.955,85.731Zm-3.471.125a6.316,6.316,0,0,0-1.011-3.69,3.484,3.484,0,0,0-2.961-1.512,3.557,3.557,0,0,0-2.289.835,3.871,3.871,0,0,0-1.339,2.192,4.546,4.546,0,0,0-.16,1.036v2.557a4.113,4.113,0,0,0,1.024,2.823,3.412,3.412,0,0,0,2.668,1.151,3.487,3.487,0,0,0,3-1.482A6.521,6.521,0,0,0,219.484,85.856Zm23.182,1.765a5.676,5.676,0,0,1-1.89,4.415,8.377,8.377,0,0,1-5.79,1.86,10.109,10.109,0,0,1-5.5-1.324l.787-2.838a9.477,9.477,0,0,0,4.92,1.325,4.643,4.643,0,0,0,3-.867,2.832,2.832,0,0,0,1.075-2.315,2.967,2.967,0,0,0-.885-2.176,8.2,8.2,0,0,0-2.933-1.638q-5.583-2.082-5.584-6.087a5.374,5.374,0,0,1,1.971-4.288,7.8,7.8,0,0,1,5.22-1.672,10.318,10.318,0,0,1,4.826,1.009L241.02,75.8a8.439,8.439,0,0,0-4.084-.977,4.154,4.154,0,0,0-2.818.883,2.527,2.527,0,0,0-.855,1.926,2.6,2.6,0,0,0,.979,2.081,11.03,11.03,0,0,0,3.089,1.638,10.473,10.473,0,0,1,4.036,2.584,5.384,5.384,0,0,1,1.3,3.686Zm11.288-6.807H250.2v7.44q0,2.838,1.987,2.836a5.986,5.986,0,0,0,1.513-.158l.094,2.585a7.717,7.717,0,0,1-2.648.377,4.082,4.082,0,0,1-3.155-1.231,6.036,6.036,0,0,1-1.136-4.131V80.807H244.62V78.252h2.236V75.446l3.345-1.009v3.815h3.754v2.561Zm16.9,4.981a8.4,8.4,0,0,1-2.019,5.8,7.2,7.2,0,0,1-5.613,2.333,6.862,6.862,0,0,1-5.378-2.236,8.15,8.15,0,0,1-2-5.643,8.337,8.337,0,0,1,2.065-5.832,7.161,7.161,0,0,1,5.568-2.271,7.006,7.006,0,0,1,5.423,2.239A8.043,8.043,0,0,1,270.858,85.794Zm-3.53.078a6.86,6.86,0,0,0-.912-3.615,3.371,3.371,0,0,0-3.061-1.825,3.42,3.42,0,0,0-3.123,1.825,6.973,6.973,0,0,0-.914,3.679,6.839,6.839,0,0,0,.914,3.617,3.493,3.493,0,0,0,6.155-.03A6.888,6.888,0,0,0,267.328,85.872Zm14.6-4.62a5.929,5.929,0,0,0-1.073-.094,3.214,3.214,0,0,0-2.776,1.357,5.111,5.111,0,0,0-.85,3.026v8.04h-3.406v-10.5q0-2.413-.1-4.824h2.966l.125,2.932h.094a5.257,5.257,0,0,1,1.7-2.429,4.119,4.119,0,0,1,2.462-.821,5.469,5.469,0,0,1,.851.062Zm15.231,3.943a7.987,7.987,0,0,1-.125,1.544H286.822a4.443,4.443,0,0,0,1.482,3.472,5.07,5.07,0,0,0,3.342,1.07,11.3,11.3,0,0,0,4.134-.723l.534,2.362a12.784,12.784,0,0,1-5.139.947,7.45,7.45,0,0,1-5.6-2.1,7.745,7.745,0,0,1-2.033-5.627,8.776,8.776,0,0,1,1.894-5.768,6.527,6.527,0,0,1,5.359-2.458,5.713,5.713,0,0,1,5.017,2.458A8.269,8.269,0,0,1,297.163,85.195Zm-3.247-.883a4.608,4.608,0,0,0-.661-2.617,2.974,2.974,0,0,0-2.712-1.421,3.229,3.229,0,0,0-2.711,1.388,5.084,5.084,0,0,0-1.008,2.648l7.092,0Z" transform="translate(-169.812 -72.016)" fill="#6a7081"/>
  </g>
</svg>
