<svg xmlns="http://www.w3.org/2000/svg" width="21.027" height="21.063" viewBox="0 0 21.027 21.063">
  <path id="Icon_feather-phone-call" data-name="Icon feather-phone-call" d="M14.888,5.123A4.529,4.529,0,0,1,18.466,8.7M14.888,1.5a8.152,8.152,0,0,1,7.2,7.192m-.906,7.229v2.717a1.812,1.812,0,0,1-1.975,1.812,17.926,17.926,0,0,1-7.817-2.781,17.664,17.664,0,0,1-5.435-5.435A17.926,17.926,0,0,1,3.175,4.381a1.812,1.812,0,0,1,1.8-1.975H7.7A1.812,1.812,0,0,1,9.507,3.964a11.631,11.631,0,0,0,.634,2.545,1.812,1.812,0,0,1-.408,1.911l-1.15,1.15a14.493,14.493,0,0,0,5.435,5.435l1.15-1.15a1.812,1.812,0,0,1,1.911-.408,11.631,11.631,0,0,0,2.545.634A1.812,1.812,0,0,1,21.183,15.921Z" transform="translate(-2.167 -0.396)" fill="none" stroke="#553d84" stroke-linecap="round" stroke-linejoin="round" stroke-width="2"/>
</svg>
