<svg xmlns="http://www.w3.org/2000/svg" width="46.347" height="52.733" viewBox="0 0 46.347 52.733">
  <g id="svgexport-6_82_" data-name="svgexport-6 (82)" transform="translate(-31)">
    <g id="Group_42847" data-name="Group 42847" transform="translate(31)">
      <path id="Path_168007" data-name="Path 168007" d="M77.347,3.193H55.719V0h-3.09V3.193H31V49.54H52.629v3.193h3.09V49.54H77.347ZM74.258,46.45H55.719v-3.09h-3.09v3.09H34.09V6.283H52.629v3.09h3.09V6.283H74.258Z" transform="translate(-31)" fill="#fff"/>
      <path id="Path_168008" data-name="Path 168008" d="M241,121h3.09v6.18H241Z" transform="translate(-219.371 -108.538)" fill="#fff"/>
      <path id="Path_168009" data-name="Path 168009" d="M241,331h3.09v6.18H241Z" transform="translate(-219.371 -296.909)" fill="#fff"/>
      <path id="Path_168010" data-name="Path 168010" d="M241,211h3.09v9.269H241Z" transform="translate(-219.371 -189.268)" fill="#fff"/>
      <path id="Path_168011" data-name="Path 168011" d="M99.575,100.48l-2-2-2.185,2.185,4.182,4.182,7.272-7.272-2.185-2.185Z" transform="translate(-88.761 -85.568)" fill="#fff"/>
      <path id="Path_168012" data-name="Path 168012" d="M115.128,213.573l-2.185,2.185-2.185-2.185-2.185,2.185,2.185,2.185-2.185,2.185,2.185,2.185,2.185-2.185,2.185,2.185,2.185-2.185-2.185-2.185,2.185-2.185Z" transform="translate(-100.584 -191.576)" fill="#fff"/>
      <path id="Path_168013" data-name="Path 168013" d="M115.128,333.573l-2.185,2.185-2.185-2.185-2.185,2.185,2.185,2.185-2.185,2.185,2.185,2.185,2.185-2.185,2.185,2.185,2.185-2.185-2.185-2.185,2.185-2.185Z" transform="translate(-100.584 -299.217)" fill="#fff"/>
      <path id="Path_168014" data-name="Path 168014" d="M309.575,220.48l-2-2-2.185,2.185,4.182,4.182,7.272-7.272-2.185-2.185Z" transform="translate(-277.132 -193.209)" fill="#fff"/>
      <path id="Path_168015" data-name="Path 168015" d="M316.847,97.578l-2.185-2.185-5.087,5.087-2-2-2.185,2.185,4.182,4.182Z" transform="translate(-277.132 -85.568)" fill="#fff"/>
      <path id="Path_168016" data-name="Path 168016" d="M325.128,333.573l-2.185,2.185-2.185-2.185-2.185,2.185,2.185,2.185-2.185,2.185,2.185,2.185,2.185-2.185,2.185,2.185,2.185-2.185-2.185-2.185,2.185-2.185Z" transform="translate(-288.956 -299.217)" fill="#fff"/>
    </g>
  </g>
</svg>
