<svg xmlns="http://www.w3.org/2000/svg" width="20.881" height="26.154" viewBox="0 0 20.881 26.154">
  <g id="svgexport-7_6_" data-name="svgexport-7 (6)" transform="translate(0.25 0.25)">
    <g id="Group_43230" data-name="Group 43230" transform="translate(0)">
      <g id="Group_43229" data-name="Group 43229">
        <path id="Path_168394" data-name="Path 168394" d="M87.7,0H79.611a.453.453,0,0,0-.318.131L74.8,4.626a.453.453,0,0,0-.131.318V19.328a2.251,2.251,0,0,0,2.248,2.248H87.7a2.251,2.251,0,0,0,2.247-2.247V2.247A2.251,2.251,0,0,0,87.7,0ZM89.05,19.329A1.35,1.35,0,0,1,87.7,20.677H76.914a1.35,1.35,0,0,1-1.348-1.349V5.131L79.8.9h7.9A1.35,1.35,0,0,1,89.05,2.247Z" transform="translate(-74.666)" fill="#593a89" stroke="#553d84" stroke-width="0.5"/>
      </g>
    </g>
    <g id="Group_43232" data-name="Group 43232" transform="translate(2.039 2.039)">
      <g id="Group_43231" data-name="Group 43231">
        <path id="Path_168395" data-name="Path 168395" d="M87.7,0H79.611a.453.453,0,0,0-.318.131L74.8,4.626a.453.453,0,0,0-.131.318V19.328a2.251,2.251,0,0,0,2.248,2.248H87.7a2.251,2.251,0,0,0,2.247-2.247V2.247A2.251,2.251,0,0,0,87.7,0ZM89.05,19.329A1.35,1.35,0,0,1,87.7,20.677H76.914a1.35,1.35,0,0,1-1.348-1.349V5.131L79.8.9h7.9A1.35,1.35,0,0,1,89.05,2.247Z" transform="translate(-74.666)" fill="#593a89" stroke="#553d84" stroke-width="0.5"/>
      </g>
    </g>
    <g id="Group_43234" data-name="Group 43234" transform="translate(5.098 4.078)">
      <g id="Group_43233" data-name="Group 43233">
        <path id="Path_168396" data-name="Path 168396" d="M87.7,0H79.611a.453.453,0,0,0-.318.131L74.8,4.626a.453.453,0,0,0-.131.318V19.328a2.251,2.251,0,0,0,2.248,2.248H87.7a2.251,2.251,0,0,0,2.247-2.247V2.247A2.251,2.251,0,0,0,87.7,0ZM89.05,19.329A1.35,1.35,0,0,1,87.7,20.677H76.914a1.35,1.35,0,0,1-1.348-1.349V5.131L79.8.9h7.9A1.35,1.35,0,0,1,89.05,2.247Z" transform="translate(-74.666)" fill="#593a89" stroke="#553d84" stroke-width="0.5"/>
      </g>
    </g>
  </g>
</svg>
