<svg xmlns="http://www.w3.org/2000/svg" width="46.787" height="46.962" viewBox="0 0 46.787 46.962">
  <g id="svgexport-6_80_" data-name="svgexport-6 (80)" transform="translate(-0.935)">
    <path id="Path_167996" data-name="Path 167996" d="M295.922,21.139H274.871V0l1.176.051a20.736,20.736,0,0,1,19.824,19.912Zm-18.8-2.255h16.408A18.517,18.517,0,0,0,277.126,2.392V18.884Z" transform="translate(-248.2)" fill="#fff"/>
    <path id="Path_167997" data-name="Path 167997" d="M22.587,80.486A21.666,21.666,0,0,1,.935,58.771a22.865,22.865,0,0,1,2.241-9.6l.484-1.018,2.036.968-.484,1.018A20.567,20.567,0,0,0,3.19,58.771,19.394,19.394,0,0,0,41.953,59.83H21.5V39.309a19.455,19.455,0,0,0-11.113,4.312l-.875.711L8.093,42.584l.875-.722A21.725,21.725,0,0,1,22.631,37h1.127V57.575H44.24V58.7A21.711,21.711,0,0,1,37.9,74.124a21.459,21.459,0,0,1-15.316,6.362Z" transform="translate(0 -33.524)" fill="#fff"/>
    <path id="Path_167998" data-name="Path 167998" d="M42.41,113.664l-1.8-1.362.681-.9c.242-.32.5-.637.757-.944l.73-.859L44.5,111.06l-.73.859c-.233.275-.462.559-.679.846Z" transform="translate(-35.95 -99.304)" fill="#fff"/>
  </g>
</svg>
