<svg id="svgexport-6_79_" data-name="svgexport-6 (79)" xmlns="http://www.w3.org/2000/svg" width="40.268" height="40.268" viewBox="0 0 40.268 40.268">
  <g id="Group_42840" data-name="Group 42840" transform="translate(0 0)">
    <g id="Page-1_2_">
      <g id="_x30_03---Layout">
        <path id="Shape_15_" d="M36.241,0H4.027A4.031,4.031,0,0,0,0,4.027V36.241a4.031,4.031,0,0,0,4.027,4.027H36.241a4.031,4.031,0,0,0,4.027-4.027V4.027A4.031,4.031,0,0,0,36.241,0ZM4.027,1.342H36.241a2.684,2.684,0,0,1,2.684,2.684V8.054H1.342V4.027A2.684,2.684,0,0,1,4.027,1.342ZM36.241,38.925H4.027a2.684,2.684,0,0,1-2.684-2.684V9.4H38.925V36.241A2.685,2.685,0,0,1,36.241,38.925Z" transform="translate(0 0)" fill="#fff"/>
        <path id="Shape_14_" d="M36.146,38.16a2.013,2.013,0,1,0-2.013-2.013A2.013,2.013,0,0,0,36.146,38.16Zm0-2.684a.671.671,0,1,1-.671.671A.671.671,0,0,1,36.146,35.475Z" transform="translate(-31.449 -31.449)" fill="#fff"/>
        <path id="Shape_13_" d="M104.413,38.16a2.013,2.013,0,1,0-2.013-2.013A2.013,2.013,0,0,0,104.413,38.16Zm0-2.684a.671.671,0,1,1-.671.671A.671.671,0,0,1,104.413,35.475Z" transform="translate(-94.346 -31.449)" fill="#fff"/>
        <path id="Shape_12_" d="M172.68,38.16a2.013,2.013,0,1,0-2.013-2.013A2.013,2.013,0,0,0,172.68,38.16Zm0-2.684a.671.671,0,1,1-.671.671A.671.671,0,0,1,172.68,35.475Z" transform="translate(-157.244 -31.449)" fill="#fff"/>
        <path id="Shape_11_" d="M343.346,38.16h6.711a2.013,2.013,0,1,0,0-4.027h-6.711a2.013,2.013,0,0,0,0,4.027Zm0-2.684h6.711a.671.671,0,1,1,0,1.342h-6.711a.671.671,0,0,1,0-1.342Z" transform="translate(-314.488 -31.449)" fill="#fff"/>
        <path id="Shape_10_" d="M67.018,145.067H36.146a2.013,2.013,0,0,0-2.013,2.013v6.711a2.013,2.013,0,0,0,2.013,2.013H67.018a2.013,2.013,0,0,0,2.013-2.013V147.08A2.013,2.013,0,0,0,67.018,145.067Zm.671,8.725a.671.671,0,0,1-.671.671H36.146a.671.671,0,0,1-.671-.671V147.08a.671.671,0,0,1,.671-.671H67.018a.671.671,0,0,1,.671.671v6.711Z" transform="translate(-31.449 -133.658)" fill="#fff"/>
        <path id="Shape_9_" d="M42.858,298.667H36.146a2.013,2.013,0,0,0-2.013,2.013v6.711a2.013,2.013,0,0,0,2.013,2.013h6.711a2.013,2.013,0,0,0,2.013-2.013V300.68A2.013,2.013,0,0,0,42.858,298.667Zm.671,8.725a.671.671,0,0,1-.671.671H36.146a.671.671,0,0,1-.671-.671V300.68a.671.671,0,0,1,.671-.671h6.711a.671.671,0,0,1,.671.671v6.711Z" transform="translate(-31.449 -275.177)" fill="#fff"/>
        <path id="Shape_7_" d="M196.459,298.667h-6.711a2.013,2.013,0,0,0-2.013,2.013v6.711a2.013,2.013,0,0,0,2.013,2.013h6.711a2.013,2.013,0,0,0,2.013-2.013V300.68A2.013,2.013,0,0,0,196.459,298.667Zm.671,8.725a.671.671,0,0,1-.671.671h-6.711a.671.671,0,0,1-.671-.671V300.68a.671.671,0,0,1,.671-.671h6.711a.671.671,0,0,1,.671.671Z" transform="translate(-172.969 -275.177)" fill="#fff"/>
        <path id="Shape_8_" d="M350.059,298.667h-6.711a2.013,2.013,0,0,0-2.013,2.013v6.711a2.013,2.013,0,0,0,2.013,2.013h6.711a2.013,2.013,0,0,0,2.013-2.013V300.68A2.013,2.013,0,0,0,350.059,298.667Zm.671,8.725a.671.671,0,0,1-.671.671h-6.711a.671.671,0,0,1-.671-.671V300.68a.671.671,0,0,1,.671-.671h6.711a.671.671,0,0,1,.671.671Z" transform="translate(-314.489 -275.177)" fill="#fff"/>
        <g id="Group_42839" data-name="Group 42839" transform="translate(4.698 35.57)">
          <path id="Path_32_" d="M65.774,452.267H60.405a.671.671,0,1,0,0,1.342h5.369a.671.671,0,1,0,0-1.342Z" transform="translate(-59.734 -452.267)" fill="#fff" fill-rule="evenodd"/>
          <path id="Path_31_" d="M219.373,452.267H214a.671.671,0,1,0,0,1.342h5.369a.671.671,0,1,0,0-1.342Z" transform="translate(-201.253 -452.267)" fill="#fff" fill-rule="evenodd"/>
          <path id="Path_30_" d="M372.973,452.267H367.6a.671.671,0,0,0,0,1.342h5.369a.671.671,0,0,0,0-1.342Z" transform="translate(-342.772 -452.267)" fill="#fff" fill-rule="evenodd"/>
        </g>
      </g>
    </g>
  </g>
</svg>
