<svg xmlns="http://www.w3.org/2000/svg" width="21.589" height="27.892" viewBox="0 0 21.589 27.892">
  <g id="svgexport-7_6_" data-name="svgexport-7 (6)" transform="translate(0)">
    <g id="Group_43210" data-name="Group 43210" transform="translate(0)">
      <g id="Group_43209" data-name="Group 43209">
        <path id="Path_168385" data-name="Path 168385" d="M93.08,0H81.651a.671.671,0,0,0-.45.17L74.851,5.98a.561.561,0,0,0-.185.411V24.987a3.053,3.053,0,0,0,3.175,2.905H93.08a3.053,3.053,0,0,0,3.175-2.905V2.905A3.053,3.053,0,0,0,93.08,0Zm1.9,24.987a1.832,1.832,0,0,1-1.9,1.743H77.841a1.832,1.832,0,0,1-1.9-1.743V6.632l5.978-5.47H93.08a1.832,1.832,0,0,1,1.9,1.743Z" transform="translate(-74.666)" fill="#593a89"/>
      </g>
    </g>
    <g id="Group_43212" data-name="Group 43212" transform="translate(5.031 11.124)">
      <g id="Group_43211" data-name="Group 43211" transform="translate(0)">
        <path id="Path_168386" data-name="Path 168386" d="M148.623,170.667h-8.384a1.574,1.574,0,0,0-1.572,1.572v10.48a1.574,1.574,0,0,0,1.572,1.572h8.384a1.574,1.574,0,0,0,1.572-1.572v-10.48A1.574,1.574,0,0,0,148.623,170.667Zm.524,12.052a.524.524,0,0,1-.524.524h-8.384a.524.524,0,0,1-.524-.524v-10.48a.524.524,0,0,1,.524-.524h8.384a.524.524,0,0,1,.524.524Z" transform="translate(-138.667 -170.667)" fill="#593a89"/>
      </g>
    </g>
    <g id="Group_43214" data-name="Group 43214" transform="translate(5.031 16.34)">
      <g id="Group_43213" data-name="Group 43213" transform="translate(0)">
        <path id="Path_168387" data-name="Path 168387" d="M149.67,298.667H139.19a.524.524,0,1,0,0,1.048h10.48a.524.524,0,0,0,0-1.048Z" transform="translate(-138.666 -298.667)" fill="#593a89"/>
      </g>
    </g>
    <g id="Group_43216" data-name="Group 43216" transform="translate(7.703 9.48)">
      <g id="Group_43215" data-name="Group 43215" transform="translate(0)">
        <path id="Path_168388" data-name="Path 168388" d="M203.19,170.667a.524.524,0,0,0-.524.524v3.144a.524.524,0,1,0,1.048,0v-3.144A.524.524,0,0,0,203.19,170.667Z" transform="translate(-202.666 -170.667)" fill="#593a89"/>
      </g>
    </g>
    <g id="Group_43218" data-name="Group 43218" transform="translate(10.271 13.035)">
      <g id="Group_43217" data-name="Group 43217">
        <path id="Path_168389" data-name="Path 168389" d="M245.857,234.667a.524.524,0,0,0-.524.524v3.144a.524.524,0,0,0,1.048,0v-3.144A.524.524,0,0,0,245.857,234.667Z" transform="translate(-245.333 -234.667)" fill="#593a89"/>
      </g>
    </g>
    <g id="Group_43220" data-name="Group 43220" transform="translate(12.838 9.48)">
      <g id="Group_43219" data-name="Group 43219">
        <path id="Path_168390" data-name="Path 168390" d="M288.524,170.667a.524.524,0,0,0-.524.524v3.144a.524.524,0,0,0,1.048,0v-3.144A.524.524,0,0,0,288.524,170.667Z" transform="translate(-288 -170.667)" fill="#593a89"/>
      </g>
    </g>
    <g id="Group_43222" data-name="Group 43222" transform="translate(10.271 20.556)">
      <g id="Group_43221" data-name="Group 43221">
        <path id="Path_168391" data-name="Path 168391" d="M245.857,362.667a.524.524,0,0,0-.524.524v3.144a.524.524,0,0,0,1.048,0v-3.144A.524.524,0,0,0,245.857,362.667Z" transform="translate(-245.333 -362.667)" fill="#593a89"/>
      </g>
    </g>
    <g id="Group_43224" data-name="Group 43224" transform="translate(7.703 16.59)">
      <g id="Group_43223" data-name="Group 43223" transform="translate(0)">
        <path id="Path_168392" data-name="Path 168392" d="M203.19,298.667a.524.524,0,0,0-.524.524v3.144a.524.524,0,0,0,1.048,0v-3.144A.524.524,0,0,0,203.19,298.667Z" transform="translate(-202.666 -298.667)" fill="#593a89"/>
      </g>
    </g>
    <g id="Group_43226" data-name="Group 43226" transform="translate(12.838 16.59)">
      <g id="Group_43225" data-name="Group 43225">
        <path id="Path_168393" data-name="Path 168393" d="M288.524,298.667a.524.524,0,0,0-.524.524v3.144a.524.524,0,0,0,1.048,0v-3.144A.524.524,0,0,0,288.524,298.667Z" transform="translate(-288 -298.667)" fill="#593a89"/>
      </g>
    </g>
  </g>
</svg>
