<svg xmlns="http://www.w3.org/2000/svg" width="62" height="63" viewBox="0 0 62 63">
  <g id="Group_42849" data-name="Group 42849" transform="translate(-0.273 0.29)">
    <g id="Rectangle_6263" data-name="Rectangle 6263" transform="translate(0.273 -0.29)" fill="#cc2229" stroke="#eee" stroke-width="1">
      <rect width="62" height="63" rx="16" stroke="none"/>
      <rect x="0.5" y="0.5" width="61" height="62" rx="15.5" fill="none"/>
    </g>
    <g id="virgin-logo-vector" transform="translate(2.848 2.966)">
      <path id="Path_168033" data-name="Path 168033" d="M29.034,0A29.034,29.034,0,1,1,0,29.034,29.09,29.09,0,0,1,29.034,0Z" fill="#cc2229" fill-rule="evenodd"/>
      <path id="Path_168034" data-name="Path 168034" d="M17.857,24.746c-1.391.646-1.573,3.038-1.916,4.409l-.3,1.152a6.279,6.279,0,0,0-.3,1.074c-.124.837-.1,2.446.964,2.446l.291-.032c.311-.244.471-.27.629-.683a4.636,4.636,0,0,0,.152-1.281q.069-.546.136-1.093c.11-.727.25-1.444.38-2.16.1-.586.315-1.147.412-1.74s.46-1.947-.448-2.092Zm4.332-3.221a1.9,1.9,0,0,0-.583.223,2.219,2.219,0,0,0-.5.665c-.208.333-.411.668-.6,1.008a.923.923,0,0,1-.238.3c-.178.123-.4.178-.525.383a3.591,3.591,0,0,0-.377,1.248,20.7,20.7,0,0,0-.306,2.161,7.145,7.145,0,0,0,.184,2.651.748.748,0,0,0,.619.215,1.469,1.469,0,0,1,.452-.032,1.315,1.315,0,0,0,.527-.432,2.483,2.483,0,0,0,.26-.637,20.211,20.211,0,0,0,.332-2.219q.056-.53.111-1.06c.027-.128.083-.35.213-.41.176-.083.455.056.658.056.084-.037.168-.074.25-.113a1.019,1.019,0,0,0,.347-.349c.075-.177.151-.353.225-.53a2.719,2.719,0,0,0-.309-2.579c-.278-.383-.172-.46-.74-.55Zm-4.2-2.415a.939.939,0,0,0-.394.306,1.624,1.624,0,0,0-.192.723c-.052.649.041,1.277.695,1.513.414.149.753-.28.912-.567.014-.027.069-.075.013-.075.147-.549.032-1.579-.533-1.838A1.3,1.3,0,0,0,17.986,19.11Zm13.837-.934a1.084,1.084,0,0,0-.432.334,5.339,5.339,0,0,0-.6,1.619c-.166.61-.338,1.234-.473,1.853-.167.755-.288,1.5-.5,2.218-.151.508-.314,1.682.387,1.851a1.15,1.15,0,0,0,1.171-.513,5.2,5.2,0,0,0,.422-1.755c.1-.58.34-1.124.419-1.7.054-.444.109-.887.162-1.331.113-.55.528-.989.426-1.637a.948.948,0,0,0-.986-.937Zm7.532-3.7a2.624,2.624,0,0,0-.766.332,10,10,0,0,0-1.233,1.378l-.506.624a.694.694,0,0,1-.372.21.392.392,0,0,1-.1-.193,1.692,1.692,0,0,0-.15-.531c-.345-.514-1.06.027-1.253.413a10.487,10.487,0,0,0-.364,1.1l-.8,2.628q-.066.508-.134,1.015a8.944,8.944,0,0,0-.3,1.073c-.078.474-.252,1.658.168,1.983a.749.749,0,0,0,.477.141c.668.01,1-.526,1.187-1.064.441-1.3.816-2.608,1.375-3.842a4.416,4.416,0,0,1,.915-1.447,1.017,1.017,0,0,1,.41-.318c.281-.075.4.147.4.392a6.728,6.728,0,0,1-.168,1.065c-.084.49-.168.981-.253,1.471a5.391,5.391,0,0,0-.2,1.2.975.975,0,0,0,.2.563c.139.174.452.293.436.562-.026.443-1.6,1.307-1.975,1.449a7.77,7.77,0,0,0-1.922,1.237l-.89.63a12.617,12.617,0,0,1-1.446.856l-.994.647-.813.482-.782.539c-.244.163-.441.412-.7.553-.035.018-.279.091-.279.019h-.033a9.715,9.715,0,0,1,.112-1.032l.022-1c.025-.322.051-.643.077-.965a16.64,16.64,0,0,1,.423-2.226c.138-.62.25-1.261.391-1.867.089-.384.5-2-.156-2.106a1.3,1.3,0,0,0-1.152.533,6.93,6.93,0,0,0-.764,1.828,20.255,20.255,0,0,1-1.092,2.64c-.115.223-.668,1.39-.931,1.39a1.91,1.91,0,0,1,.035-1.256c.007-.031.053-.1,0-.1.139-.335.211-.8.33-1.156a9.137,9.137,0,0,1,.625-1.343,2.744,2.744,0,0,1,.453-.636l.378-.3a1.923,1.923,0,0,0,.582-1.014c.124-.56-.027-1.715-.69-1.779a1.01,1.01,0,0,0-.452.106c-.846.342-1.15,1.365-1.5,2.091a19.6,19.6,0,0,0-1.623,4.617,22.994,22.994,0,0,0-.232,2.406,2.986,2.986,0,0,0,.494,2.43c.635.593,1.828-.5,2.23-.985.085-.1.538-.8.629-.8v-.032h.032v.064a3.751,3.751,0,0,1,.033,1.191,3.665,3.665,0,0,1-.347,1.591,3.074,3.074,0,0,1-.633.619c-.448.4-.937.738-1.358,1.159a14.355,14.355,0,0,1-1.064,1.194,7.685,7.685,0,0,1-1.091.559,3.583,3.583,0,0,0-.571.491l-.381.3c-.458.387-.585,1.006-1.065,1.381l-.5.346c-.67.519-1.326,1.064-2,1.584-.534.413-1.063.819-1.567,1.275q-.63.535-1.257,1.068-.179.16-.359.319l-.941.866a11.318,11.318,0,0,1-1.166,1.124,4.182,4.182,0,0,0-.991.816,2.262,2.262,0,0,0-.249.39c-.151.341-.323,1.279-.043,1.59.69.764,2.505-1.445,3.008-1.873.79-.675,1.475-1.478,2.235-2.187q2.08-1.953,4.067-4a5.153,5.153,0,0,1,.958-.659,4.479,4.479,0,0,0,.861-.848l.37-.37L24,35.9c.228-.164.474-.262.694-.443.075-.1.15-.193.223-.289a2.29,2.29,0,0,1,.748-.657.316.316,0,0,1,.228.012.359.359,0,0,1,.12.275c-.023.247-.045.493-.068.74q-.073,1.159-.147,2.32c.019.749-.042,1.567-.053,2.318l0,1.127c-.011.7.022,1.457.055,2.158s.033,1.384.075,2.06q.045.6.088,1.193l-.027,1.063c0,.67.08,2.113.536,2.487a.755.755,0,0,0,.564.157,1.193,1.193,0,0,0,.56-.162c1.041-.641.4-2.75.316-3.771l-.282-2.223-.23-2.575c-.055-.568-.055-1.157-.055-1.737a28.931,28.931,0,0,1,.318-4.444,9.268,9.268,0,0,1,.526-2.21,4.265,4.265,0,0,1,1.289-1.5l.692-.445A7.9,7.9,0,0,0,31.448,30.3a8.981,8.981,0,0,1,.71-.74,9.848,9.848,0,0,1,1.137-.682c.239-.146.429-.4.658-.559.613-.426,1.316-.749,1.961-1.113l.838-.568q2.006-1.21,4.093-2.276a20.266,20.266,0,0,1,2.864-1.28q.614-.257,1.227-.515a3.322,3.322,0,0,1,.7-.315,2.721,2.721,0,0,1,1.218.182,2.57,2.57,0,0,0,.557.024l.407-.151a1.4,1.4,0,0,0,.5-.395,2.156,2.156,0,0,0,.3-.578c.283-.736.659-1.625-.161-2.238a1.1,1.1,0,0,0-.594-.242,3.622,3.622,0,0,0-1.755.589c-.2.068-.393.137-.59.2-.26.115-.483.339-.74.465s-.557.194-.813.336l-.955.488a4.294,4.294,0,0,1-1.486.564,1.379,1.379,0,0,1-.789-.253,2.059,2.059,0,0,1-.747-1.049,5.257,5.257,0,0,1,.125-1.869l.092-1.026c.031-.4.111-.822.125-1.256a2.251,2.251,0,0,0-.163-1.159.877.877,0,0,0-.811-.419Zm-5.3-2.415c-.14.13-.3.208-.387.385a1.826,1.826,0,0,0-.1.773c-.006.139-.01.278-.017.417a.726.726,0,0,0,.953.694c.386-.072.432-.534.5-.85a2.1,2.1,0,0,0,.1-.8.745.745,0,0,0-.242-.421,1.211,1.211,0,0,0-.808-.194ZM23.32,1.557a1.514,1.514,0,0,0-.6.362,8.925,8.925,0,0,0-.968,1.59,24.613,24.613,0,0,0-1.54,2.939c-.106.237-.212.473-.319.709l-.266.687c-.146.341-.218.714-.363,1.046s-.4.577-.56.879l-.634,1.262-.363.817c-.176.331-.383.65-.539.989-.312.673-.533,1.4-.785,2.106l-.567,1.375-.627,1.491c-.59,1.239-1.025,2.575-1.522,3.865L13.3,22.684l-.93,2.674c-.652,1.877-1.046,3.856-1.674,5.736-.146.433-.284.872-.391,1.318a2.771,2.771,0,0,1-.391,1.161c-.053.062-.16.12-.236.057a19.457,19.457,0,0,1-.265-3.057c-.145-1.775-.09-3.7-.061-5.475.023-1.495,0-3.042-.028-4.541l-.032-1.127c0-.749.024-2.879-.779-3.012-.865-.144-1.474,1.87-1.7,2.419a15.1,15.1,0,0,0-.48,1.936,12.591,12.591,0,0,1-.518,1.512c-.624,1.552-1.624,2.915-2.209,4.488a5.79,5.79,0,0,0-.318,1.032c-.078.451-.047,1.414.346,1.666a.827.827,0,0,0,.96-.1,4.625,4.625,0,0,0,.514-1.1c.135-.284.271-.567.405-.85.176-.374.415-.725.585-1.11.209-.475.282-1.02.484-1.5.087-.155.174-.31.261-.466l.367-.777c.018-.031.062-.081.108-.081v.032a2.392,2.392,0,0,1,.168.74c.052.4.106.8.126,1.224.066,1.414.094,2.858.094,4.316a29.444,29.444,0,0,0,.238,3.863l.206,1.354c.121,1.09.121,2.215.227,3.317q.129,1.239.258,2.48c.055.5.007,1.355.3,1.706.209.253.512.227.842.227.207-.144.353-.135.525-.372a2.877,2.877,0,0,0,.253-1.593c.02-.669.038-1.367.1-2.029a29.809,29.809,0,0,1,.552-3.638c.1-.463.285-.9.392-1.36.047-.278.1-.555.143-.833a6.756,6.756,0,0,1,.049-.9,8.164,8.164,0,0,1,.562-1.552,2.446,2.446,0,0,0,.086-.571c.044-.2.088-.407.131-.612q.317-1.129.633-2.26c.011-.049.14-.386.1-.386a7.122,7.122,0,0,0,.24-.8l.579-1.935,1.455-4.6q.361-1.043.72-2.086c.6-1.349,1.3-2.69,1.9-4.047a16.381,16.381,0,0,0,.647-1.8,6.8,6.8,0,0,1,.315-1.086,6.008,6.008,0,0,1,.691-.851,11.652,11.652,0,0,0,.972-1.445c.463-.9.7-2.037,1.7-2.534a1.172,1.172,0,0,1,.33-.162c.37-.063.518.7.693.915a.676.676,0,0,0,.267.183,1.458,1.458,0,0,0,.553,0,1.066,1.066,0,0,0,.407-.456,6.128,6.128,0,0,0-.49-3.879,1.154,1.154,0,0,0-.952-.494Z" transform="translate(4.619 2.211)" fill="#fff" fill-rule="evenodd"/>
    </g>
  </g>
</svg>
