<svg xmlns="http://www.w3.org/2000/svg" width="28.109" height="20.276" viewBox="0 0 28.109 20.276">
  <path id="Icon_awesome-wifi" data-name="Icon awesome-wifi" d="M25.9,7.263a18.968,18.968,0,0,0-25.694,0A.648.648,0,0,0,.193,8.2l1.4,1.386A.662.662,0,0,0,2.5,9.6a15.652,15.652,0,0,1,21.1,0,.663.663,0,0,0,.914-.016l1.4-1.386a.649.649,0,0,0-.015-.937ZM13.055,15.3a2.611,2.611,0,1,0,2.611,2.611A2.611,2.611,0,0,0,13.055,15.3Zm8.268-3.41a12.524,12.524,0,0,0-16.536,0,.645.645,0,0,0-.023.944l1.4,1.387a.666.666,0,0,0,.9.033,9.188,9.188,0,0,1,11.973,0,.665.665,0,0,0,.9-.033l1.4-1.387A.645.645,0,0,0,21.323,11.894Z" transform="translate(1 -1.25)" fill="none" stroke="#553d84" stroke-width="2"/>
</svg>
